<?xml version="1.0" encoding="utf-8"?>
<!-- Generator: Adobe Illustrator 19.2.1, SVG Export Plug-In . SVG Version: 6.00 Build 0)  -->
<svg version="1.1" id="Layer_1" xmlns="http://www.w3.org/2000/svg" xmlns:xlink="http://www.w3.org/1999/xlink" x="0px" y="0px"
	 viewBox="0 0 75 75" style="enable-background:new 0 0 75 75;" xml:space="preserve" preserveAspectRatio="xMinYMid">
<style type="text/css">
	.st0{fill:#FFFFFF;}
	.st1{fill:#A8333A;}
	.st2{fill:none;}
	.st3{fill:none;stroke:#FFFFFF;stroke-width:2;stroke-miterlimit:10;}
	.st4{fill:#A93439;}
	.st5{fill:#009ABF;}
	.st6{fill:#82BC00;}
	.st7{fill:#622066;}
	.st8{fill:none;stroke:#FFFFFF;stroke-width:1.3268;stroke-miterlimit:10;}
	.st9{fill:none;stroke:#FFFFFF;stroke-width:1.3288;stroke-miterlimit:10;}
</style>
<g>
	<path class="st0" d="M50.6,46.3c-0.8-0.5-1.7-0.9-2.6-1.1c-2.4-0.6-5.1-0.8-7-3.3c0,0-1-1.1,1.2-3.8c2.2-2.7,2.4-7,1.8-10.3
		c-0.5-3.3-3.7-5.5-6.9-5.5c-3.2,0-6.4,2.2-6.9,5.5c-0.6,3.3-0.4,7.6,1.8,10.3c2.2,2.7,1.2,3.8,1.2,3.8c-1.9,2.5-4.6,2.7-7,3.3
		c-0.9,0.2-1.9,0.6-2.6,1.1c-2.8,2-2.1,6.4-2.1,6.4h0.3h12.6h2.7h2.7h12.6h0.2C52.7,52.7,53.4,48.2,50.6,46.3"/>
	<rect x="7.8" y="8.1" class="st2" width="58.8" height="58.8"/>
	<path class="st3" d="M66.5,37.5c0,16.2-13.1,29.3-29.3,29.3C21,66.8,7.8,53.7,7.8,37.5C7.8,21.3,21,8.2,37.2,8.2
		C53.4,8.2,66.5,21.3,66.5,37.5"/>
</g>
</svg>
