<svg x="0px" y="0px"
	  style="enable-background:new 0 0 75 75;" xml:space="preserve" preserveAspectRatio="xMinYMid" id="Layer_1" data-name="Layer 1" xmlns="http://www.w3.org/2000/svg" viewBox="0 0 75 75"><defs><style>.cls-1{fill:none;stroke:#fff;stroke-miterlimit:10;stroke-width:2px;}.cls-2{fill:#fff;}</style></defs><title>icons_web_buttons_2018</title><path class="cls-1" d="M66.82,37.5A29.32,29.32,0,1,1,37.5,8.18,29.32,29.32,0,0,1,66.82,37.5"/><path class="cls-2" d="M39.38,41.73H52.55a.94.94,0,1,1,0,1.88H39.38a.94.94,0,1,1,0-1.88ZM28.57,38.91c3.38,0,6.11,1.8,6.11,3.92v.78H22.45v-.78C22.45,40.71,25.18,38.91,28.57,38.91Zm10.81-2.35H52.55a.94.94,0,0,1,0,1.88H39.38a.94.94,0,1,1,0-1.88Zm0-5.17H52.55a.94.94,0,0,1,0,1.88H39.38a.94.94,0,1,1,0-1.88Zm-10.81,0a2.82,2.82,0,1,1-2.82,2.82A2.82,2.82,0,0,1,28.57,31.39Zm-8-6.11a2.81,2.81,0,0,0-2.82,2.82V46.9a2.81,2.81,0,0,0,2.82,2.82H54.43a2.81,2.81,0,0,0,2.82-2.82V28.1a2.81,2.81,0,0,0-2.82-2.82Z"/></svg>