<svg x="0px" y="0px"
	  style="enable-background:new 0 0 75 75;" xml:space="preserve" preserveAspectRatio="xMinYMid" id="Layer_1" data-name="Layer 1" xmlns="http://www.w3.org/2000/svg" viewBox="0 0 75 75"><defs><style>.cls-1{fill:none;stroke:#fff;stroke-miterlimit:10;stroke-width:2px;}.cls-2{fill:#fff;}</style></defs><title>icons_web_buttons_2018</title><path class="cls-1" d="M66.82,37.5A29.32,29.32,0,1,1,37.5,8.18,29.32,29.32,0,0,1,66.82,37.5"/><path class="cls-2" d="M40.51,24.93c0,4-6,4-6,0s6-4,6,0"/><path class="cls-2" d="M40.06,28.47h-5.3a2.54,2.54,0,0,0-2.65,2.35V37H42.89V30.82A2.81,2.81,0,0,0,40.06,28.47Z"/><path class="cls-2" d="M27.27,24.93c0,4-6,4-6,0s6-4,6,0"/><path class="cls-2" d="M26.81,28.47h-5.3a2.55,2.55,0,0,0-2.65,2.35V37H29.64V30.82A2.8,2.8,0,0,0,26.81,28.47Z"/><path class="cls-2" d="M53.76,24.93c0,4-6,4-6,0s6-4,6,0"/><path class="cls-2" d="M53.3,28.47H48a2.54,2.54,0,0,0-2.65,2.35V37H56.14V30.82A2.81,2.81,0,0,0,53.3,28.47Z"/><polygon class="cls-2" points="56.14 38.14 18.86 38.14 18.86 42.29 20.14 42.29 20.14 53.09 23.77 53.09 23.77 42.32 51.23 42.32 51.23 53.09 54.86 53.09 54.86 42.29 56.14 42.29 56.14 38.14"/></svg>