<?xml version="1.0" encoding="utf-8"?>
<!-- Generator: Adobe Illustrator 19.2.1, SVG Export Plug-In . SVG Version: 6.00 Build 0)  -->
<svg version="1.1" id="Layer_1" xmlns="http://www.w3.org/2000/svg" xmlns:xlink="http://www.w3.org/1999/xlink" x="0px" y="0px"
	 viewBox="0 0 75 75" style="enable-background:new 0 0 75 75;" xml:space="preserve" preserveAspectRatio="xMinYMid">
<style type="text/css">
	.st0{fill:#FFFFFF;}
	.st1{fill:#A8333A;}
	.st2{fill:none;}
	.st3{fill:none;stroke:#FFFFFF;stroke-width:2;stroke-miterlimit:10;}
	.st4{fill:#A93439;}
	.st5{fill:#009ABF;}
	.st6{fill:#82BC00;}
	.st7{fill:#622066;}
	.st8{fill:none;stroke:#FFFFFF;stroke-width:1.3268;stroke-miterlimit:10;}
	.st9{fill:none;stroke:#FFFFFF;stroke-width:1.3288;stroke-miterlimit:10;}
</style>
<g>
	<path class="st3" d="M71.4,41c0,16.2-13.1,29.3-29.3,29.3c-16.2,0-29.3-13.1-29.3-29.3c0-16.2,13.1-29.3,29.3-29.3
		C58.3,11.7,71.4,24.8,71.4,41"/>
	<path class="st0" d="M37.3,38.6l-5.9-2.3l8-4.2l5.9,2.3L37.3,38.6z M60.8,43.6l-13,6.8l0,0l-0.5,0.2c-1.1,0.4-1.2,0-1.2-0.7
		c0-0.1,0-1.8,0-1.9c0-1.1,0.3-1.2,2.1-2.2c0.8-0.4,8.9-4.7,11-5.8c1.6-0.9,1.6-2.1,0.1-2.7c-0.9-0.4-19.1-7.6-19.8-7.9
		c-0.7-0.3-2-0.2-2.6,0.1c-0.5,0.3-11,5.8-12.1,6.4c-1,0.5-1.5,1.8-1.6,3.4c0,0.1,0,2.3,0,2.4c0,1.7,0.5,2.4,1.8,2.9
		c1.3,0.5,19,7.6,19,7.6c1.6,0.6,2,0.7,3.2,0.1l0.5-0.3l0.3-0.2l11-5.8c0,0,0,0,0,0l0.2-0.1c0.3-0.2,0.6-0.4,0.8-0.6
		C60.7,44.8,61,44.2,60.8,43.6"/>
</g>
</svg>
